#!OML:ASF X:\für Bonn\!DataBase\2005_08_11_Bastian_Final\c3d\Bastian.ASF
:FULLY-SPECIFIED
:DEGREES
592
root 1.42432 1.22839 25.3259 -808.268 -175.973 -717.903
lowerback -1.05641 -2.22886 -3.84216
upperback 3.81058 -2.93912 0.144802
thorax 4.73346 -1.64704 2.13936
lowerneck -21.0998 -3.19843 -1.77424
upperneck 16.7549 -3.72961 -0.462689
head 8.72563 -1.90151 -0.368694
rclavicle -7.15625e-015 1.07344e-014
rhumerus -66.499 57.1725 -113.909
rradius 25.1235
rwrist -10.542
rhand -12.9008 -4.57899
rfingers 7.12502
rthumb 13.1888 -34.1418
lclavicle -7.15625e-015 1.07344e-014
lhumerus -47.3114 -42.9278 94.5947
lradius 19.1195
lwrist 17.7243
lhand -8.05872 -4.08293
lfingers 7.12502
lthumb 17.8523 25.1177
rfemur -13.4532 10.3715 17.9691
rtibia 33.3799
rfoot -12.6842 -26.3747
rtoes 7.01416
lfemur -6.38842 5.20652 -21.657
ltibia 16.9519
lfoot 2.49477 2.34243
ltoes -26.8942
593
root 1.42555 1.22831 25.3256 -808.223 -175.972 -717.904
lowerback -1.12158 -2.23081 -3.83929
upperback 3.78759 -2.9376 0.14464
thorax 4.74624 -1.64512 2.13558
lowerneck -21.4047 -3.20483 -1.75859
upperneck 16.5845 -3.75109 -0.411056
head 8.72051 -1.90684 -0.360053
rclavicle 1.35174e-014 -2.08724e-015
rhumerus -66.6301 57.2388 -114.084
rradius 25.1091
rwrist -10.7147
rhand -13.041 -4.62764
rfingers 7.12502
rthumb 13.0537 -34.1992
lclavicle 1.35174e-014 -2.08724e-015
lhumerus -47.1475 -42.7748 94.3315
lradius 19.0355
lwrist 17.6272
lhand -8.07209 -4.05331
lfingers 7.12502
lthumb 17.8395 25.1484
rfemur -13.5029 10.3138 17.9616
rtibia 33.3803
rfoot -12.6766 -26.3346
rtoes 7.00391
lfemur -6.44716 5.20549 -21.6523
ltibia 16.9663
lfoot 2.48434 2.37497
ltoes -26.8001
594
root 1.42647 1.22795 25.3254 -808.213 -175.973 -717.885
lowerback -1.12453 -2.23025 -3.84034
upperback 3.75393 -2.93576 0.148547
thorax 4.71283 -1.64252 2.14117
lowerneck -21.711 -3.20295 -1.74231
upperneck 16.4556 -3.76487 -0.337177
head 8.73012 -1.90517 -0.343261
rclavicle -1.03368e-014 -1.799e-014
rhumerus -66.7297 57.2411 -114.178
rradius 25.1065
rwrist -10.7525
rhand -13.1408 -4.70445
rfingers 7.12502
rthumb 12.9575 -34.2821
lclavicle -1.03368e-014 -1.799e-014
lhumerus -47.0737 -42.7127 94.1855
lradius 18.9438
lwrist 17.6676
lhand -8.05577 -4.03476
lfingers 7.12502
lthumb 17.8552 25.1656
rfemur -13.5065 10.4102 17.9662
rtibia 33.379
rfoot -12.7316 -26.4493
rtoes 7.0066
lfemur -6.47044 5.22227 -21.6467
ltibia 16.9804
lfoot 2.48211 2.37301
ltoes -26.707
595
root 1.42708 1.22788 25.3255 -808.202 -175.971 -717.885
lowerback -1.1437 -2.22175 -3.83757
upperback 3.73511 -2.92269 0.145802
thorax 4.70285 -1.63485 2.13731
lowerneck -22.021 -3.21534 -1.73648
upperneck 16.299 -3.7944 -0.264319
head 8.73093 -1.91153 -0.326983
rclavicle -7.95139e-015 1.49089e-015
rhumerus -66.8372 57.2777 -114.307
rradius 25.1007
rwrist -10.8879
rhand -13.2671 -4.79918
rfingers 7.12502
rthumb 12.8357 -34.3845
lclavicle -7.95139e-015 1.49089e-015
lhumerus -47.0133 -42.7136 94.0833
lradius 18.8694
lwrist 17.7733
lhand -8.10617 -3.96024
lfingers 7.12502
lthumb 17.8067 25.2445
rfemur -13.518 10.3329 17.9608
rtibia 33.3766
rfoot -12.7083 -26.4113
rtoes 6.899
lfemur -6.49482 5.24431 -21.6472
ltibia 17.0004
lfoot 2.49026 2.38152
ltoes -26.7272
596
root 1.42774 1.22788 25.3258 -808.178 -175.97 -717.877
lowerback -1.16689 -2.22066 -3.82875
upperback 3.70404 -2.9188 0.136064
thorax 4.68223 -1.6307 2.12248
lowerneck -22.3362 -3.20879 -1.69326
upperneck 16.1687 -3.8085 -0.193084
head 8.74053 -1.90776 -0.315393
rclavicle -1.90833e-014 1.19271e-015
rhumerus -66.6882 57.1796 -114.178
rradius 25.0324
rwrist -10.799
rhand -13.3421 -4.86687
rfingers 7.12502
rthumb 12.7634 -34.4567
lclavicle -1.90833e-014 1.19271e-015
lhumerus -46.9997 -42.7367 93.9972
lradius 18.8083
lwrist 17.9096
lhand -8.10126 -3.92233
lfingers 7.12502
lthumb 17.8114 25.282
rfemur -13.5367 10.3883 17.9563
rtibia 33.3789
rfoot -12.7959 -26.4695
rtoes 7.06739
lfemur -6.53519 5.25223 -21.6487
ltibia 17.0095
lfoot 2.4997 2.3802
ltoes -26.7974
597
root 1.42853 1.22769 25.3261 -808.145 -175.995 -717.877
lowerback -1.21981 -2.21406 -3.80199
upperback 3.68705 -2.90813 0.144252
thorax 4.69279 -1.6239 2.11493
lowerneck -22.645 -3.21315 -1.71961
upperneck 16.0245 -3.82482 -0.0738452
head 8.74662 -1.90376 -0.27624
rclavicle 2.22639e-014 -1.95803e-014
rhumerus -66.7399 57.2002 -114.248
rradius 25.0009
rwrist -10.8595
rhand -13.4955 -4.96476
rfingers 7.12502
rthumb 12.6155 -34.5638
lclavicle 2.22639e-014 -1.95803e-014
lhumerus -46.8703 -42.6266 93.7771
lradius 18.7674
lwrist 17.8622
lhand -8.10768 -3.85372
lfingers 7.12502
lthumb 17.8052 25.3512
rfemur -13.5737 10.3341 17.98
rtibia 33.3808
rfoot -12.7871 -26.4582
rtoes 7.05687
lfemur -6.57884 5.28923 -21.6189
ltibia 17.0168
lfoot 2.5067 2.37386
ltoes -26.8948
598
root 1.42896 1.22774 25.326 -808.133 -175.969 -717.878
lowerback -1.24283 -2.21139 -3.82307
upperback 3.67401 -2.90128 0.129791
thorax 4.69218 -1.62021 2.11156
lowerneck -22.9881 -3.20914 -1.68732
upperneck 15.9074 -3.83606 -0.00957377
head 8.76515 -1.89938 -0.265269
rclavicle -1.82882e-014 -6.85807e-015
rhumerus -66.6575 57.1623 -114.192
rradius 24.9703
rwrist -10.8408
rhand -13.6046 -5.04882
rfingers 7.12502
rthumb 12.5103 -34.6543
lclavicle -1.82882e-014 -6.85807e-015
lhumerus -46.8359 -42.6593 93.7069
lradius 18.6991
lwrist 18.0041
lhand -8.18041 -3.80258
lfingers 7.12502
lthumb 17.7352 25.4086
rfemur -13.5849 10.39 17.9466
rtibia 33.3818
rfoot -12.8042 -26.5166
rtoes 7.02293
lfemur -6.59919 5.31933 -21.6419
ltibia 17.0271
lfoot 2.50309 2.37707
ltoes -26.8022
599
root 1.42943 1.22827 25.3262 -808.11 -175.972 -717.878
lowerback -1.27313 -2.20916 -3.82674
upperback 3.64772 -2.8963 0.139385
thorax 4.68233 -1.61683 2.1233
lowerneck -23.3003 -3.20404 -1.72631
upperneck 15.7831 -3.83252 0.103182
head 8.77827 -1.88684 -0.223571
rclavicle 1.51076e-014 -8.05078e-015
rhumerus -66.6977 57.167 -114.243
rradius 24.935
rwrist -10.8867
rhand -13.7199 -5.20954
rfingers 7.12502
rthumb 12.3992 -34.8218
lclavicle 1.51076e-014 -8.05078e-015
lhumerus -46.7783 -42.624 93.6107
lradius 18.6382
lwrist 18.0922
lhand -8.20028 -3.74355
lfingers 7.12502
lthumb 17.7161 25.4694
rfemur -13.6096 10.3005 17.9431
rtibia 33.386
rfoot -12.7628 -26.4704
rtoes 6.99022
lfemur -6.62683 5.34475 -21.6391
ltibia 17.0336
lfoot 2.49097 2.36213
ltoes -26.8697
600
root 1.43004 1.22823 25.3266 -808.076 -175.992 -717.879
lowerback -1.32087 -2.20685 -3.80131
upperback 3.63365 -2.89129 0.139598
thorax 4.69302 -1.61283 2.10806
lowerneck -23.6707 -3.2034 -1.72021
upperneck 15.7034 -3.84481 0.198894
head 8.81512 -1.87986 -0.198334
rclavicle -3.49861e-014 -1.88845e-015
rhumerus -66.6372 57.1531 -114.2
rradius 24.9107
rwrist -10.8293
rhand -13.8434 -5.36244
rfingers 7.12502
rthumb 12.2801 -34.9819
lclavicle -3.49861e-014 -1.88845e-015
lhumerus -46.6817 -42.5796 93.445
lradius 18.5846
lwrist 18.1534
lhand -8.2072 -3.6949
lfingers 7.12502
lthumb 17.7095 25.5186
rfemur -13.6447 10.3075 17.9637
rtibia 33.3915
rfoot -12.7962 -26.5054
rtoes 6.94512
lfemur -6.66507 5.32886 -21.6119
ltibia 17.0335
lfoot 2.48479 2.41386
ltoes -26.7651
601
root 1.43018 1.22794 25.3265 -808.065 -175.97 -717.87
lowerback -1.3307 -2.20445 -3.83415
upperback 3.60994 -2.88613 0.149979
thorax 4.67588 -1.61051 2.13768
lowerneck -23.9891 -3.20345 -1.77804
upperneck 15.5955 -3.8418 0.317429
head 8.83498 -1.86722 -0.151676
rclavicle -7.95139e-015 5.96354e-015
rhumerus -66.4873 57.0827 -114.023
rradius 24.8436
rwrist -10.7524
rhand -13.9335 -5.47408
rfingers 7.12502
rthumb 12.1932 -35.0987
lclavicle -7.95139e-015 5.96354e-015
lhumerus -46.5743 -42.4998 93.3233
lradius 18.5102
lwrist 18.1443
lhand -8.19668 -3.59001
lfingers 7.12502
lthumb 17.7196 25.6226
rfemur -13.661 10.2897 17.9312
rtibia 33.3935
rfoot -12.8093 -26.5129
rtoes 7.05218
lfemur -6.68579 5.33106 -21.6369
ltibia 17.0423
lfoot 2.48475 2.41702
ltoes -26.7948
602
root 1.43065 1.22811 25.3267 -808.042 -175.968 -717.87
lowerback -1.36743 -2.20516 -3.84
upperback 3.59637 -2.8845 0.149776
thorax 4.68282 -1.60931 2.13968
lowerneck -24.3073 -3.19433 -1.78684
upperneck 15.4698 -3.83727 0.41437
head 8.84686 -1.85293 -0.119682
rclavicle 2.38542e-015 2.46493e-014
rhumerus -66.4606 57.0784 -114.004
rradius 24.8214
rwrist -10.7225
rhand -14.0323 -5.68155
rfingers 7.12502
rthumb 12.0979 -35.3118
lclavicle 2.38542e-015 2.46493e-014
lhumerus -46.5341 -42.4922 93.2428
lradius 18.4828
lwrist 18.2775
lhand -8.2252 -3.51082
lfingers 7.12502
lthumb 17.6921 25.7043
rfemur -13.6818 10.2937 17.9261
rtibia 33.3937
rfoot -12.8071 -26.5392
rtoes 6.9175
lfemur -6.71716 5.33968 -21.6409
ltibia 17.0511
lfoot 2.49511 2.44056
ltoes -26.8145
